<svg width="32" height="32" viewBox="0 0 32 32" fill="none" xmlns="http://www.w3.org/2000/svg">
  <rect width="32" height="32" rx="8" fill="#050505"/>
  <path d="M11 19L19 11M14.5 15.5L16 14L18 16L16.5 17.5L14.5 15.5ZM21 9C21.5523 9 22 8.55228 22 8C22 7.44772 21.5523 7 21 7C20.4477 7 20 7.44772 20 8C20 8.55228 20.4477 9 21 9ZM7 23C7 23.5523 7.44772 24 8 24C8.55228 24 9 23.5523 9 23C9 22.4477 8.55228 22 8 22C7.44772 22 7 22.4477 7 23Z" stroke="#FBBF24" stroke-width="2" stroke-linecap="round" stroke-linejoin="round"/>
  <circle cx="16" cy="16" r="12" stroke="#FBBF24" stroke-width="0.5" stroke-dasharray="2 2" opacity="0.3"/>
</svg>
